<svg width="50" height="50" viewBox="0 0 50 50" fill="none" xmlns="http://www.w3.org/2000/svg">
<circle cx="25" cy="25" r="25" fill="url(#paint0_linear_235_3010)"/>
<path d="M31.706 25.674C31.6131 25.5733 31.5027 25.4935 31.3812 25.439C31.2597 25.3845 31.1294 25.3564 30.9978 25.3564C30.8663 25.3564 30.736 25.3845 30.6145 25.439C30.493 25.4935 30.3826 25.5733 30.2897 25.674L26.0002 30.3072V17.0798C26.0002 16.7934 25.8948 16.5188 25.7074 16.3163C25.5199 16.1138 25.2656 16 25.0005 16C24.7353 16 24.4811 16.1138 24.2936 16.3163C24.1061 16.5188 24.0008 16.7934 24.0008 17.0798V30.3072L19.7096 25.674C19.5218 25.4711 19.267 25.3572 19.0014 25.3572C18.7358 25.3572 18.4811 25.4711 18.2933 25.674C18.1055 25.8768 18 26.152 18 26.4388C18 26.7257 18.1055 27.0008 18.2933 27.2037L24.2915 33.6824C24.3844 33.7831 24.4948 33.8629 24.6163 33.9174C24.7378 33.9719 24.8681 34 24.9996 34C25.1312 34 25.2615 33.9719 25.383 33.9174C25.5045 33.8629 25.6149 33.7831 25.7078 33.6824L31.706 27.2037C31.7992 27.1034 31.8731 26.9842 31.9236 26.8529C31.974 26.7217 32 26.581 32 26.4388C32 26.2967 31.974 26.156 31.9236 26.0248C31.8731 25.8935 31.7992 25.7743 31.706 25.674Z" fill="white"/>
<defs>
<linearGradient id="paint0_linear_235_3010" x1="25" y1="0" x2="25" y2="50" gradientUnits="userSpaceOnUse">
<stop stop-color="#4568DC"/>
<stop offset="1" stop-color="#B06AB3"/>
</linearGradient>
</defs>
</svg>
