<svg width="30" height="30" viewBox="0 0 30 30" fill="none" xmlns="http://www.w3.org/2000/svg">
<path d="M27.5 0H2.5C1.83696 0 1.20107 0.263392 0.732233 0.732233C0.263392 1.20107 0 1.83696 0 2.5V27.5C0 28.163 0.263392 28.7989 0.732233 29.2678C1.20107 29.7366 1.83696 30 2.5 30H27.5C28.163 30 28.7989 29.7366 29.2678 29.2678C29.7366 28.7989 30 28.163 30 27.5V2.5C30 1.83696 29.7366 1.20107 29.2678 0.732233C28.7989 0.263392 28.163 0 27.5 0ZM27.5 27.5H2.5V20L8.75 13.75L15.7375 20.7375C16.2059 21.2031 16.8395 21.4645 17.5 21.4645C18.1605 21.4645 18.7941 21.2031 19.2625 20.7375L21.25 18.75L27.5 25V27.5ZM27.5 21.4625L23.0125 16.975C22.5441 16.5094 21.9105 16.248 21.25 16.248C20.5895 16.248 19.9559 16.5094 19.4875 16.975L17.5 18.9625L10.5125 11.975C10.0441 11.5094 9.41046 11.248 8.75 11.248C8.08954 11.248 7.45591 11.5094 6.9875 11.975L2.5 16.4625V2.5H27.5V21.4625Z" fill="#B06AB3"/>
</svg>
