<svg width="33" height="33" viewBox="0 0 33 33" fill="none" xmlns="http://www.w3.org/2000/svg">
<path d="M27.8239 2.91211H5.17682C4.57618 2.91211 4.00014 3.15071 3.57543 3.57543C3.15071 4.00014 2.91211 4.57618 2.91211 5.17682V27.8239C2.91211 28.4245 3.15071 29.0005 3.57543 29.4253C4.00014 29.85 4.57618 30.0886 5.17682 30.0886H27.8239C28.4245 30.0886 29.0005 29.85 29.4253 29.4253C29.85 29.0005 30.0886 28.4245 30.0886 27.8239V5.17682C30.0886 4.57618 29.85 4.00014 29.4253 3.57543C29.0005 3.15071 28.4245 2.91211 27.8239 2.91211Z" stroke="#B06AB3" stroke-width="2.5" stroke-linecap="round" stroke-linejoin="round"/>
<path d="M2.91211 9.70623H30.0886M23.2945 2.91211L18.7651 9.70623M14.2356 2.91211L9.70623 9.70623M13.8582 19.52V14.9437L17.8214 17.2311L21.7847 19.52L17.8214 21.8081L13.8582 24.0962V19.52Z" stroke="#B06AB3" stroke-width="2.5" stroke-linecap="round" stroke-linejoin="round"/>
</svg>
