<svg width="28" height="28" viewBox="0 0 28 28" fill="none" xmlns="http://www.w3.org/2000/svg">
<path d="M25.4399 11.7157H24.5002V11.6673H14.0002V16.334H20.5936C19.6317 19.0506 17.0469 21.0007 14.0002 21.0007C10.1344 21.0007 7.00016 17.8664 7.00016 14.0007C7.00016 10.1349 10.1344 7.00065 14.0002 7.00065C15.7846 7.00065 17.408 7.67382 18.6441 8.7734L21.944 5.47348C19.8603 3.53157 17.0732 2.33398 14.0002 2.33398C7.55725 2.33398 2.3335 7.55773 2.3335 14.0007C2.3335 20.4436 7.55725 25.6673 14.0002 25.6673C20.4431 25.6673 25.6668 20.4436 25.6668 14.0007C25.6668 13.2184 25.5863 12.4548 25.4399 11.7157Z" fill="#FFC107"/>
<path d="M3.67871 8.5704L7.51179 11.3815C8.54896 8.81365 11.0608 7.00065 14.0002 7.00065C15.7846 7.00065 17.408 7.67382 18.6441 8.7734L21.944 5.47348C19.8604 3.53157 17.0732 2.33398 14.0002 2.33398C9.51904 2.33398 5.63288 4.8639 3.67871 8.5704Z" fill="#FF3D00"/>
<path d="M14 25.6671C17.0135 25.6671 19.7517 24.5138 21.8219 22.6384L18.2111 19.5829C17.0004 20.5036 15.521 21.0016 14 21.0004C10.9655 21.0004 8.38894 19.0655 7.41827 16.3652L3.61377 19.2965C5.5446 23.0747 9.46577 25.6671 14 25.6671Z" fill="#4CAF50"/>
<path d="M25.4397 11.7144H24.5V11.666H14V16.3327H20.5934C20.1333 17.6256 19.3045 18.7554 18.2093 19.5824L18.2111 19.5813L21.8219 22.6368C21.5664 22.8689 25.6667 19.8327 25.6667 13.9993C25.6667 13.2171 25.5862 12.4535 25.4397 11.7144Z" fill="#1976D2"/>
</svg>
