<svg width="31" height="34" viewBox="0 0 31 34" fill="none" xmlns="http://www.w3.org/2000/svg">
<g clip-path="url(#clip0_231_1374)">
<path d="M15.1691 33.9992C15.0262 33.9797 14.8843 33.9504 14.7405 33.9424C12.7407 33.8395 10.7733 33.5583 8.86385 32.9399C7.73462 32.5743 6.66416 32.0908 5.69496 31.4059C4.65886 30.673 4.26376 29.5214 4.65795 28.3299C5.00604 27.2794 5.36858 26.2325 5.72389 25.1847C5.75554 25.0906 5.78447 24.9966 5.8143 24.8963C3.34609 22.0182 2.14183 18.7018 2.32988 14.9462C2.49624 11.6253 3.73757 8.70282 6.01682 6.24079C8.38649 3.68116 11.3357 2.17467 14.8382 1.7071C17.5713 1.34334 21.2935 1.79582 24.5555 3.91095C24.7363 3.71044 24.9334 3.51792 25.098 3.297C25.6766 2.50737 26.0392 1.61128 26.3339 0.694785C26.3674 0.589206 26.3891 0.479193 26.4243 0.376276C26.4592 0.267672 26.5286 0.172901 26.6224 0.105881C26.7162 0.0388614 26.8295 0.00312504 26.9455 0.00391921C27.0615 0.00471337 27.1742 0.0419918 27.2671 0.110289C27.3599 0.178586 27.428 0.2743 27.4613 0.38337C27.5671 0.685912 27.6494 0.996438 27.7588 1.29809C27.9827 1.96014 28.2972 2.5893 28.6936 3.16835C28.8624 3.40301 29.0511 3.62323 29.2578 3.82667C29.5018 4.0776 29.8335 4.22877 30.1863 4.24987C30.4955 4.27028 30.6881 4.44772 30.7288 4.70767C30.7631 4.94811 30.6384 5.16991 30.3671 5.27904C29.8105 5.4948 29.2945 5.80004 28.8401 6.18223C28.527 6.44833 28.2572 6.75979 28.04 7.10583C30.0679 9.77281 31.1031 12.7689 30.9973 16.1058C30.8915 19.4426 29.6936 22.3554 27.4966 24.8981C27.8013 25.7933 28.1105 26.6805 28.4007 27.5731C28.5453 28.0167 28.7162 28.4603 28.775 28.911C28.9079 29.9278 28.5038 30.7538 27.6738 31.3642C26.6992 32.0793 25.6034 32.5672 24.4534 32.9416C23.0928 33.3802 21.6867 33.6689 20.261 33.8022C19.6336 33.8644 19.0034 33.8998 18.3751 33.9504C18.2986 33.9615 18.2231 33.9778 18.149 33.9992H15.1691ZM23.2798 4.414C17.791 1.21026 10.0347 2.33348 5.81069 8.19533C3.83846 10.9487 3.03046 14.345 3.55648 17.6706C4.08249 20.9963 5.90157 23.9925 8.6315 26.0296C11.3614 28.0667 14.7897 28.9862 18.196 28.5949C21.6023 28.2035 24.7214 26.5318 26.8981 23.931C31.2757 18.7053 30.359 11.9767 27.5436 8.33907C27.5219 8.59725 27.5065 8.82792 27.4821 9.05682C27.4655 9.18454 27.4023 9.30202 27.3042 9.38752C27.2061 9.47301 27.0798 9.52072 26.9486 9.5218C26.8174 9.52288 26.6902 9.47727 26.5907 9.39341C26.4911 9.30955 26.4259 9.19312 26.4071 9.06569C26.399 9.00004 26.4071 8.93261 26.3999 8.86696C26.3746 8.10921 26.1056 7.37877 25.6314 6.78022C25.0998 6.10771 24.4118 5.64192 23.618 5.31542C23.146 5.12112 23.0574 4.89222 23.2798 4.414ZM5.85499 28.2491C5.35864 29.1745 5.5946 30.0839 6.45622 30.6384C7.37294 31.2239 8.36746 31.6828 9.41174 32.0021C11.4713 32.6435 13.5968 32.8591 15.7405 32.9257C17.0032 32.963 18.267 32.9256 19.5251 32.8139C21.0214 32.6835 22.4969 32.443 23.9308 31.9932C25.0202 31.6525 26.0591 31.2036 26.9867 30.5364C27.1245 30.4408 27.2486 30.3274 27.3555 30.1993C27.8609 29.572 27.7796 28.9101 27.4559 28.2208C27.3962 28.2749 27.3447 28.3166 27.2986 28.3636C26.6754 28.9905 25.9572 29.519 25.1694 29.9304C23.9565 30.5677 22.6572 31.032 21.3107 31.3092C19.3876 31.7244 17.4502 31.9728 15.4738 31.8202C13.8767 31.7103 12.2963 31.4321 10.7598 30.9906C9.40361 30.5896 8.11345 30.0431 6.97879 29.194C6.58822 28.9004 6.22658 28.5641 5.85499 28.2491Z" fill="#1F1F1F"/>
<path d="M2.1581 28.0314C2.02746 28.0348 1.90027 27.9899 1.80179 27.9056C1.70331 27.8213 1.64073 27.7037 1.62649 27.5762C1.60935 27.3899 1.57914 27.2049 1.53608 27.0226C1.38509 26.5409 1.0352 26.2241 0.593094 25.9908C0.494546 25.9393 0.386055 25.9021 0.289315 25.8488C0.191833 25.7984 0.112508 25.7198 0.0621079 25.6236C0.011708 25.5275 -0.00732897 25.4184 0.00757673 25.3113C0.0224824 25.2042 0.0706112 25.1041 0.145433 25.0247C0.220255 24.9454 0.318151 24.8905 0.425836 24.8676C0.480255 24.8538 0.536023 24.8457 0.592189 24.8436C0.971009 24.8241 1.2106 24.6138 1.37515 24.2989C1.55597 23.9564 1.59032 23.5829 1.6301 23.2094C1.64002 23.0812 1.69768 22.9612 1.79208 22.8722C1.88647 22.7831 2.01099 22.7314 2.14183 22.7267C2.26748 22.7238 2.39026 22.7638 2.4892 22.8398C2.58814 22.9159 2.6571 23.0233 2.68429 23.1437C2.7087 23.2386 2.70147 23.3415 2.71955 23.4383C2.75119 23.656 2.7974 23.8715 2.85788 24.0833C3.00615 24.5269 3.27739 24.825 3.79725 24.8543C3.92898 24.8555 4.05562 24.9044 4.153 24.9914C4.25039 25.0785 4.3117 25.1977 4.32524 25.3263C4.35598 25.5605 4.21585 25.7566 3.94914 25.895C3.72661 25.9999 3.51471 26.1253 3.31626 26.2694C3.13593 26.4033 2.98819 26.575 2.88374 26.7718C2.77929 26.9687 2.72074 27.1859 2.71232 27.4077C2.7085 27.5068 2.68992 27.6048 2.65717 27.6987C2.62239 27.8 2.55478 27.8873 2.46467 27.9474C2.37456 28.0075 2.26689 28.037 2.1581 28.0314Z" fill="#1F1F1F"/>
<path d="M23.5176 17.5305C22.4327 17.5305 21.3478 17.5305 20.2701 17.5305C20.1361 17.5247 20.0023 17.5443 19.8759 17.5881C18.9302 17.9892 18.1581 18.5889 17.6472 19.4859C17.376 19.9729 17.2235 20.515 17.2015 21.0696C17.2015 21.1468 17.2015 21.2257 17.1925 21.3011C17.1783 21.429 17.1175 21.5474 17.0213 21.6347C16.9251 21.7219 16.8 21.7721 16.669 21.7758C16.5327 21.7782 16.4005 21.7294 16.2997 21.6394C16.1988 21.5493 16.1369 21.4248 16.1265 21.2914C16.1057 21.1139 16.1121 20.9365 16.0895 20.7591C15.9439 19.6376 15.3454 18.7877 14.435 18.1284C14.3355 18.0557 14.2306 17.9909 14.1267 17.9244C13.7065 17.6461 13.2086 17.5025 12.7018 17.5136C10.8529 17.542 9.00309 17.5243 7.15419 17.5243C7.05288 17.5286 6.9514 17.5262 6.85041 17.5172C6.72523 17.495 6.61195 17.4304 6.53037 17.3347C6.44879 17.2389 6.4041 17.1181 6.4041 16.9933C6.4041 16.8684 6.44879 16.7476 6.53037 16.6518C6.61195 16.5561 6.72523 16.4915 6.85041 16.4694C6.95137 16.4599 7.05289 16.4575 7.15419 16.4623C9.17216 16.4623 11.191 16.4534 13.2117 16.4676C13.437 16.4736 13.6611 16.4334 13.8696 16.3497C14.0782 16.266 14.2668 16.1406 14.4232 15.9814C14.7496 15.6489 15.0238 15.2707 15.2369 14.8591C15.5763 14.2347 15.849 13.5777 16.0506 12.8983C16.082 12.7812 16.1194 12.6657 16.1627 12.5523C16.2025 12.4542 16.2716 12.3703 16.3609 12.3115C16.4502 12.2527 16.5555 12.2217 16.6631 12.2227C16.7706 12.2236 16.8753 12.2565 16.9635 12.3169C17.0517 12.3773 17.1192 12.4624 17.1572 12.5612C17.2024 12.6738 17.2323 12.7918 17.2675 12.9081C17.5062 13.6835 17.8 14.4376 18.2385 15.1261C18.4499 15.4517 18.6921 15.7571 18.9618 16.0382C19.1014 16.1834 19.2711 16.2976 19.4596 16.3729C19.648 16.4482 19.8507 16.4829 20.054 16.4747C22.2636 16.4658 24.4742 16.4747 26.6838 16.4747C26.7854 16.4707 26.8871 16.4725 26.9885 16.48C27.1213 16.4916 27.2451 16.5513 27.3356 16.6474C27.4262 16.7434 27.4772 16.8691 27.4786 17C27.4801 17.1309 27.432 17.2577 27.3436 17.3557C27.2551 17.4537 27.1328 17.516 27.0002 17.5305C26.9101 17.5384 26.8195 17.5404 26.729 17.5367L23.5176 17.5305Z" fill="#1F1F1F"/>
<path d="M25.9804 12.6444C25.9731 12.7478 25.9372 12.8474 25.8765 12.9323C25.8158 13.0172 25.7326 13.0842 25.6359 13.1261C25.4515 13.2069 25.2741 13.3022 25.1052 13.4109C24.6532 13.7188 24.3819 14.1305 24.3629 14.6823C24.3595 14.7595 24.3456 14.8359 24.3214 14.9095C24.2894 15.0283 24.2139 15.1315 24.1093 15.1992C24.0048 15.267 23.8785 15.2946 23.7545 15.2768C23.6365 15.2664 23.5256 15.2167 23.4403 15.136C23.3549 15.0554 23.3002 14.9485 23.2853 14.8331C23.2677 14.6465 23.2375 14.4613 23.1948 14.2786C23.0529 13.8217 22.731 13.505 22.3133 13.2779C22.1949 13.214 22.0683 13.167 21.9517 13.1004C21.8535 13.0512 21.7732 12.9735 21.7215 12.8779C21.6699 12.7823 21.6495 12.6734 21.6632 12.566C21.6768 12.4586 21.7238 12.358 21.7977 12.2777C21.8716 12.1975 21.969 12.1415 22.0765 12.1174C22.1194 12.1047 22.1637 12.0972 22.2085 12.0952C22.6659 12.0837 22.9426 11.8219 23.08 11.4307C23.1737 11.1368 23.2393 10.835 23.2762 10.5293C23.3286 10.1832 23.5257 9.96853 23.8259 9.97474C24.1261 9.98095 24.3205 10.2045 24.3684 10.5479C24.3946 10.8217 24.4464 11.0925 24.523 11.357C24.6649 11.7838 24.9416 12.0721 25.4452 12.1014C25.5893 12.1044 25.7264 12.1632 25.8266 12.2649C25.9268 12.3665 25.9821 12.5029 25.9804 12.6444Z" fill="#1F1F1F"/>
<path d="M8.99586 6.4668C9.29602 6.48454 9.46328 6.57859 9.56273 6.77732C9.60879 6.86125 9.62823 6.95678 9.61856 7.05163C9.60889 7.14649 9.57056 7.23634 9.50848 7.30965C9.42197 7.41186 9.32603 7.50601 9.22188 7.59091C8.22189 8.47387 7.39462 9.52863 6.7808 10.7033C6.74248 10.7831 6.69742 10.8597 6.64608 10.9322C6.57605 11.0343 6.47035 11.1077 6.34893 11.1386C6.22751 11.1695 6.09876 11.1557 5.98699 11.0999C5.87239 11.0495 5.78003 10.9605 5.72676 10.8489C5.67348 10.7374 5.66284 10.6107 5.69677 10.4921C5.71853 10.418 5.74886 10.3465 5.78718 10.2792C6.48929 8.91178 7.45563 7.69139 8.6324 6.68594C8.74589 6.60131 8.86764 6.52791 8.99586 6.4668Z" fill="#1F1F1F"/>
<path d="M13.8699 14.8761C13.7559 14.8299 13.6489 14.7687 13.5517 14.6942C13.19 14.3606 12.8395 14.0176 12.5002 13.6651C12.2633 13.4202 12.2723 13.1061 12.5002 12.8967C12.5504 12.8476 12.6101 12.809 12.6759 12.7831C12.7417 12.7573 12.8121 12.7447 12.8829 12.7462C12.9538 12.7477 13.0236 12.7632 13.0881 12.7918C13.1527 12.8204 13.2107 12.8615 13.2587 12.9127C13.6258 13.2543 13.982 13.6083 14.3328 13.9658C14.4171 14.0417 14.4727 14.1432 14.4908 14.254C14.5089 14.3648 14.4882 14.4784 14.4323 14.5762C14.3283 14.7732 14.1574 14.8575 13.8699 14.8761Z" fill="#1F1F1F"/>
<path d="M20.9943 13.3505C20.95 13.4636 20.889 13.5697 20.8134 13.6654C20.4735 14.0203 20.1242 14.3646 19.7656 14.6982C19.5133 14.9351 19.2005 14.9342 18.9817 14.7203C18.7629 14.5065 18.7611 14.1987 19.0016 13.952C19.3443 13.5971 19.696 13.2591 20.0513 12.9211C20.127 12.8373 20.229 12.7808 20.3412 12.7604C20.4534 12.74 20.5693 12.7569 20.6706 12.8084C20.8731 12.8989 20.9717 13.063 20.9943 13.3505Z" fill="#1F1F1F"/>
<path d="M14.4991 19.7129C14.4581 19.8266 14.3995 19.9334 14.3256 20.0296C13.9784 20.3907 13.624 20.7465 13.2533 21.0846C12.9423 21.3685 12.5155 21.2709 12.3673 20.9071C12.3259 20.815 12.3144 20.7126 12.3345 20.6138C12.3546 20.5151 12.4051 20.4248 12.4794 20.3553C12.841 19.9903 13.2069 19.6313 13.577 19.2782C13.6511 19.2005 13.7489 19.1485 13.8558 19.1303C13.9626 19.1121 14.0726 19.1285 14.1691 19.177C14.3735 19.2684 14.4702 19.4299 14.4991 19.7129Z" fill="#1F1F1F"/>
<path d="M20.3731 21.2576C20.2566 21.2092 20.1469 21.1463 20.0468 21.0704C19.6851 20.7362 19.3349 20.3928 18.9962 20.0403C18.7593 19.7963 18.7702 19.4814 18.9962 19.272C19.2222 19.0626 19.516 19.0679 19.7556 19.2906C20.1227 19.6331 20.4789 19.9871 20.8297 20.3446C20.9134 20.4209 20.9685 20.5225 20.9863 20.6332C21.004 20.744 20.9832 20.8573 20.9274 20.955C20.8234 21.1529 20.6507 21.2345 20.3731 21.2576Z" fill="#1F1F1F"/>
<path d="M17.1943 10.3371C17.2006 10.4468 17.2006 10.5567 17.1943 10.6663C17.1835 10.7996 17.1214 10.9238 17.0207 11.0138C16.9199 11.1038 16.788 11.1527 16.6518 11.1507C16.5157 11.1506 16.3847 11.0992 16.2861 11.0071C16.1875 10.9149 16.1288 10.7891 16.122 10.6556C16.1094 10.4689 16.1094 10.2816 16.122 10.0949C16.1392 9.78085 16.3553 9.56792 16.6491 9.5626C16.943 9.55727 17.1789 9.77553 17.1997 10.1065C17.2051 10.1828 17.1997 10.2599 17.1997 10.3371H17.1943Z" fill="#1F1F1F"/>
<path d="M17.1934 23.6358C17.2002 23.7454 17.2002 23.8553 17.1934 23.965C17.1781 24.0917 17.1169 24.2088 17.021 24.2949C16.925 24.381 16.8008 24.4305 16.6708 24.4343C16.5351 24.4383 16.403 24.3909 16.3019 24.3018C16.2009 24.2128 16.1388 24.089 16.1284 23.9561C16.1101 23.7495 16.1101 23.5417 16.1284 23.335C16.137 23.2017 16.1977 23.0767 16.298 22.9863C16.3982 22.8959 16.5302 22.8469 16.6663 22.8497C16.8023 22.8506 16.933 22.9021 17.0318 22.9938C17.1307 23.0855 17.1903 23.2107 17.1988 23.3439C17.2088 23.4424 17.1988 23.5418 17.1988 23.6402L17.1934 23.6358Z" fill="#1F1F1F"/>
<path d="M4.74475 13.1572C4.78819 12.9529 4.84221 12.7509 4.90659 12.5521C4.95285 12.4315 5.04353 12.3323 5.16072 12.2741C5.2779 12.216 5.41306 12.2031 5.53946 12.238C5.66611 12.2712 5.776 12.3487 5.84844 12.4559C5.92088 12.5631 5.95087 12.6926 5.93275 12.82C5.89911 13.0273 5.84893 13.2317 5.78267 13.4313C5.74742 13.5552 5.66667 13.662 5.55599 13.7309C5.44531 13.7999 5.31253 13.8262 5.18325 13.8048C4.90297 13.7551 4.72576 13.5227 4.74475 13.1572Z" fill="#1F1F1F"/>
</g>
<defs>
<clipPath id="clip0_231_1374">
<rect width="31" height="34" fill="white"/>
</clipPath>
</defs>
</svg>
