<svg width="60" height="28" viewBox="0 0 60 28" fill="none" xmlns="http://www.w3.org/2000/svg">
<path d="M6.05 22.3C4.31 22.3 3.02 21.83 2.18 20.89C1.36 19.93 0.95 18.53 0.95 16.69V0.849999H4.7V16.51C4.7 18.31 5.46 19.21 6.98 19.21C7.2 19.21 7.42 19.2 7.64 19.18C7.86 19.16 8.07 19.12 8.27 19.06L8.21 22.03C7.49 22.21 6.77 22.3 6.05 22.3ZM17.0736 22.3C15.5536 22.3 14.2336 21.99 13.1136 21.37C11.9936 20.75 11.1236 19.87 10.5036 18.73C9.88359 17.57 9.57359 16.21 9.57359 14.65C9.57359 13.09 9.88359 11.74 10.5036 10.6C11.1236 9.46 11.9936 8.58 13.1136 7.96C14.2336 7.34 15.5536 7.03 17.0736 7.03C18.5936 7.03 19.9136 7.34 21.0336 7.96C22.1536 8.58 23.0236 9.46 23.6436 10.6C24.2636 11.74 24.5736 13.09 24.5736 14.65C24.5736 16.21 24.2636 17.57 23.6436 18.73C23.0236 19.87 22.1536 20.75 21.0336 21.37C19.9136 21.99 18.5936 22.3 17.0736 22.3ZM17.0736 19.45C18.1936 19.45 19.0936 19.05 19.7736 18.25C20.4536 17.43 20.7936 16.23 20.7936 14.65C20.7936 13.05 20.4536 11.86 19.7736 11.08C19.0936 10.28 18.1936 9.88 17.0736 9.88C15.9536 9.88 15.0536 10.28 14.3736 11.08C13.6936 11.86 13.3536 13.05 13.3536 14.65C13.3536 16.23 13.6936 17.43 14.3736 18.25C15.0536 19.05 15.9536 19.45 17.0736 19.45ZM34.5088 27.7C33.1488 27.7 31.8688 27.54 30.6688 27.22C29.4888 26.92 28.4488 26.45 27.5488 25.81L28.6288 23.2C29.4688 23.76 30.3688 24.17 31.3288 24.43C32.2888 24.71 33.2488 24.85 34.2088 24.85C36.8888 24.85 38.2288 23.56 38.2288 20.98V18.97C37.8088 19.79 37.1588 20.44 36.2788 20.92C35.4188 21.4 34.4588 21.64 33.3988 21.64C32.0788 21.64 30.9288 21.34 29.9488 20.74C28.9688 20.12 28.2088 19.26 27.6688 18.16C27.1288 17.06 26.8588 15.78 26.8588 14.32C26.8588 12.86 27.1288 11.59 27.6688 10.51C28.2088 9.41 28.9688 8.56 29.9488 7.96C30.9288 7.34 32.0788 7.03 33.3988 7.03C34.4988 7.03 35.4788 7.28 36.3388 7.78C37.1988 8.26 37.8288 8.91 38.2288 9.73V7.33H41.8888V20.53C41.8888 22.91 41.2588 24.7 39.9988 25.9C38.7388 27.1 36.9088 27.7 34.5088 27.7ZM34.4188 18.79C35.5788 18.79 36.4988 18.39 37.1788 17.59C37.8588 16.79 38.1988 15.7 38.1988 14.32C38.1988 12.94 37.8588 11.86 37.1788 11.08C36.4988 10.28 35.5788 9.88 34.4188 9.88C33.2588 9.88 32.3388 10.28 31.6588 11.08C30.9788 11.86 30.6388 12.94 30.6388 14.32C30.6388 15.7 30.9788 16.79 31.6588 17.59C32.3388 18.39 33.2588 18.79 34.4188 18.79ZM52.4642 22.3C50.9442 22.3 49.6242 21.99 48.5042 21.37C47.3842 20.75 46.5142 19.87 45.8942 18.73C45.2742 17.57 44.9642 16.21 44.9642 14.65C44.9642 13.09 45.2742 11.74 45.8942 10.6C46.5142 9.46 47.3842 8.58 48.5042 7.96C49.6242 7.34 50.9442 7.03 52.4642 7.03C53.9842 7.03 55.3042 7.34 56.4242 7.96C57.5442 8.58 58.4142 9.46 59.0342 10.6C59.6542 11.74 59.9642 13.09 59.9642 14.65C59.9642 16.21 59.6542 17.57 59.0342 18.73C58.4142 19.87 57.5442 20.75 56.4242 21.37C55.3042 21.99 53.9842 22.3 52.4642 22.3ZM52.4642 19.45C53.5842 19.45 54.4842 19.05 55.1642 18.25C55.8442 17.43 56.1842 16.23 56.1842 14.65C56.1842 13.05 55.8442 11.86 55.1642 11.08C54.4842 10.28 53.5842 9.88 52.4642 9.88C51.3442 9.88 50.4442 10.28 49.7642 11.08C49.0842 11.86 48.7442 13.05 48.7442 14.65C48.7442 16.23 49.0842 17.43 49.7642 18.25C50.4442 19.05 51.3442 19.45 52.4642 19.45Z" fill="#1F1F1F"/>
</svg>
