<svg width="158" height="73" viewBox="0 0 158 73" fill="none" xmlns="http://www.w3.org/2000/svg">
<path d="M13.8 57.8C9.16 57.8 5.72 56.5467 3.48 54.04C1.29333 51.48 0.2 47.7467 0.2 42.84V0.599997H10.2V42.36C10.2 47.16 12.2267 49.56 16.28 49.56C16.8667 49.56 17.4533 49.5333 18.04 49.48C18.6267 49.4267 19.1867 49.32 19.72 49.16L19.56 57.08C17.64 57.56 15.72 57.8 13.8 57.8ZM43.1963 57.8C39.1429 57.8 35.6229 56.9733 32.6363 55.32C29.6496 53.6667 27.3296 51.32 25.6763 48.28C24.0229 45.1867 23.1963 41.56 23.1963 37.4C23.1963 33.24 24.0229 29.64 25.6763 26.6C27.3296 23.56 29.6496 21.2133 32.6363 19.56C35.6229 17.9067 39.1429 17.08 43.1963 17.08C47.2496 17.08 50.7696 17.9067 53.7563 19.56C56.7429 21.2133 59.0629 23.56 60.7163 26.6C62.3696 29.64 63.1963 33.24 63.1963 37.4C63.1963 41.56 62.3696 45.1867 60.7163 48.28C59.0629 51.32 56.7429 53.6667 53.7563 55.32C50.7696 56.9733 47.2496 57.8 43.1963 57.8ZM43.1963 50.2C46.1829 50.2 48.5829 49.1333 50.3963 47C52.2096 44.8133 53.1163 41.6133 53.1163 37.4C53.1163 33.1333 52.2096 29.96 50.3963 27.88C48.5829 25.7467 46.1829 24.68 43.1963 24.68C40.2096 24.68 37.8096 25.7467 35.9963 27.88C34.1829 29.96 33.2763 33.1333 33.2763 37.4C33.2763 41.6133 34.1829 44.8133 35.9963 47C37.8096 49.1333 40.2096 50.2 43.1963 50.2ZM89.69 72.2C86.0633 72.2 82.65 71.7733 79.45 70.92C76.3033 70.12 73.53 68.8667 71.13 67.16L74.01 60.2C76.25 61.6933 78.65 62.7867 81.21 63.48C83.77 64.2267 86.33 64.6 88.89 64.6C96.0367 64.6 99.61 61.16 99.61 54.28V48.92C98.49 51.1067 96.7567 52.84 94.41 54.12C92.1167 55.4 89.5567 56.04 86.73 56.04C83.21 56.04 80.1433 55.24 77.53 53.64C74.9167 51.9867 72.89 49.6933 71.45 46.76C70.01 43.8267 69.29 40.4133 69.29 36.52C69.29 32.6267 70.01 29.24 71.45 26.36C72.89 23.4267 74.9167 21.16 77.53 19.56C80.1433 17.9067 83.21 17.08 86.73 17.08C89.6633 17.08 92.2767 17.7467 94.57 19.08C96.8633 20.36 98.5433 22.0933 99.61 24.28V17.88H109.37V53.08C109.37 59.4267 107.69 64.2 104.33 67.4C100.97 70.6 96.09 72.2 89.69 72.2ZM89.45 48.44C92.5433 48.44 94.9967 47.3733 96.81 45.24C98.6233 43.1067 99.53 40.2 99.53 36.52C99.53 32.84 98.6233 29.96 96.81 27.88C94.9967 25.7467 92.5433 24.68 89.45 24.68C86.3567 24.68 83.9033 25.7467 82.09 27.88C80.2767 29.96 79.37 32.84 79.37 36.52C79.37 40.2 80.2767 43.1067 82.09 45.24C83.9033 47.3733 86.3567 48.44 89.45 48.44ZM137.571 57.8C133.518 57.8 129.998 56.9733 127.011 55.32C124.025 53.6667 121.705 51.32 120.051 48.28C118.398 45.1867 117.571 41.56 117.571 37.4C117.571 33.24 118.398 29.64 120.051 26.6C121.705 23.56 124.025 21.2133 127.011 19.56C129.998 17.9067 133.518 17.08 137.571 17.08C141.625 17.08 145.145 17.9067 148.131 19.56C151.118 21.2133 153.438 23.56 155.091 26.6C156.745 29.64 157.571 33.24 157.571 37.4C157.571 41.56 156.745 45.1867 155.091 48.28C153.438 51.32 151.118 53.6667 148.131 55.32C145.145 56.9733 141.625 57.8 137.571 57.8ZM137.571 50.2C140.558 50.2 142.958 49.1333 144.771 47C146.585 44.8133 147.491 41.6133 147.491 37.4C147.491 33.1333 146.585 29.96 144.771 27.88C142.958 25.7467 140.558 24.68 137.571 24.68C134.585 24.68 132.185 25.7467 130.371 27.88C128.558 29.96 127.651 33.1333 127.651 37.4C127.651 41.6133 128.558 44.8133 130.371 47C132.185 49.1333 134.585 50.2 137.571 50.2Z" fill="white"/>
</svg>
