<svg width="33" height="36" viewBox="0 0 33 36" fill="none" xmlns="http://www.w3.org/2000/svg">
<g clip-path="url(#clip0_272_212)">
<path d="M16.1478 36.0009C15.9958 35.9802 15.8447 35.9492 15.6916 35.9408C13.5627 35.8318 11.4685 35.534 9.4358 34.8792C8.23372 34.4922 7.0942 33.9802 6.06246 33.255C4.95951 32.479 4.53893 31.2597 4.95855 29.9981C5.32909 28.8858 5.71503 27.7773 6.09326 26.6679C6.12695 26.5683 6.15775 26.4687 6.18951 26.3626C3.56206 23.3151 2.2801 19.8036 2.48028 15.8271C2.65737 12.3109 3.97879 9.21648 6.40509 6.60962C8.92764 3.89943 12.0671 2.30431 15.7956 1.80925C18.705 1.42409 22.6674 1.90318 26.1398 4.14273C26.3323 3.93043 26.5421 3.72658 26.7173 3.49266C27.3333 2.65659 27.7192 1.70779 28.033 0.737378C28.0686 0.625588 28.0917 0.509105 28.1292 0.400133C28.1663 0.285141 28.2402 0.184795 28.3401 0.113833C28.4399 0.0428707 28.5605 0.00503221 28.684 0.00587309C28.8075 0.00671397 28.9275 0.0461853 29.0263 0.1185C29.1252 0.190815 29.1976 0.292158 29.2331 0.407644C29.3457 0.727983 29.4333 1.05678 29.5498 1.37617C29.7882 2.07716 30.1229 2.74333 30.5449 3.35645C30.7246 3.60491 30.9255 3.83808 31.1455 4.05349C31.4053 4.31918 31.7583 4.47924 32.1339 4.50159C32.463 4.52319 32.668 4.71107 32.7114 4.98632C32.7479 5.2409 32.6151 5.47575 32.3264 5.5913C31.7339 5.81975 31.1845 6.14295 30.7008 6.54762C30.3676 6.82937 30.0803 7.15915 29.8491 7.52554C32.0078 10.3494 33.1098 13.5218 32.9972 17.0549C32.8846 20.588 31.6094 23.6721 29.2706 26.3644C29.595 27.3123 29.9241 28.2517 30.2331 29.1967C30.3871 29.6665 30.569 30.1362 30.6315 30.6134C30.773 31.6899 30.3428 32.5645 29.4593 33.2108C28.4218 33.968 27.2553 34.4847 26.0311 34.8811C24.5827 35.3455 23.0859 35.6511 21.5683 35.7923C20.9003 35.8581 20.2295 35.8957 19.5606 35.9492C19.4793 35.9609 19.3989 35.9782 19.32 36.0009H16.1478ZM24.7818 4.67538C18.9389 1.28317 10.6822 2.47246 6.18566 8.67913C4.08619 11.5944 3.22606 15.1905 3.78601 18.7118C4.34597 22.2331 6.28241 25.4055 9.18846 27.5624C12.0945 29.7194 15.744 30.693 19.37 30.2786C22.9961 29.8643 26.3164 28.0943 28.6335 25.3405C33.2936 19.8074 32.3177 12.6829 29.3207 8.83132C29.2976 9.10469 29.2812 9.34893 29.2552 9.5913C29.2376 9.72653 29.1703 9.85092 29.0659 9.94145C28.9614 10.032 28.8269 10.0825 28.6873 10.0836C28.5476 10.0848 28.4123 10.0365 28.3063 9.94768C28.2003 9.85889 28.1309 9.73561 28.1109 9.60069C28.1022 9.53118 28.1109 9.45978 28.1032 9.39027C28.0763 8.58795 27.7899 7.81454 27.2851 7.18078C26.7192 6.46871 25.9868 5.97552 25.1418 5.62982C24.6394 5.42409 24.5451 5.18172 24.7818 4.67538ZM6.23282 29.9126C5.70444 30.8924 5.95563 31.8553 6.87283 32.4424C7.8487 33.0624 8.90738 33.5482 10.019 33.8863C12.2115 34.5655 14.4742 34.7937 16.7561 34.8642C18.1002 34.9037 19.4456 34.8642 20.7848 34.7458C22.3777 34.6077 23.9484 34.3532 25.4748 33.8769C26.6345 33.5162 27.7404 33.0408 28.7278 32.3344C28.8746 32.2332 29.0066 32.1131 29.1205 31.9774C29.6585 31.3132 29.5719 30.6124 29.2273 29.8825C29.1638 29.9398 29.1089 29.984 29.0599 30.0338C28.3965 30.6975 27.632 31.2572 26.7933 31.6928C25.5022 32.3676 24.119 32.8591 22.6857 33.1526C20.6386 33.5922 18.5761 33.8553 16.4722 33.6937C14.772 33.5773 13.0897 33.2828 11.454 32.8153C10.0104 32.3907 8.63698 31.8121 7.42912 30.913C7.01335 30.6021 6.62838 30.2461 6.23282 29.9126Z" fill="url(#paint0_linear_272_212)"/>
<path d="M2.29745 29.6794C2.15838 29.683 2.02299 29.6355 1.91815 29.5462C1.81332 29.4569 1.74671 29.3324 1.73154 29.1975C1.7133 29.0001 1.68114 28.8043 1.6353 28.6113C1.47457 28.1012 1.10211 27.7658 0.631477 27.5187C0.526572 27.4642 0.411081 27.4248 0.3081 27.3684C0.204329 27.3151 0.119886 27.2318 0.0662344 27.13C0.012583 27.0282 -0.0076822 26.9127 0.00818516 26.7993C0.0240525 26.6859 0.0752864 26.5799 0.154935 26.4959C0.234585 26.4118 0.338796 26.3537 0.453429 26.3295C0.511359 26.3148 0.570725 26.3063 0.630514 26.3041C1.03377 26.2834 1.28882 26.0608 1.46399 25.7273C1.65647 25.3647 1.69304 24.9692 1.73539 24.5737C1.74595 24.438 1.80733 24.3109 1.90782 24.2167C2.0083 24.1224 2.14085 24.0676 2.28013 24.0627C2.41388 24.0596 2.54458 24.1019 2.64991 24.1824C2.75523 24.263 2.82864 24.3767 2.85759 24.5042C2.88358 24.6047 2.87588 24.7137 2.89513 24.8161C2.92881 25.0466 2.97799 25.2748 3.04238 25.499C3.20022 25.9687 3.48895 26.2844 4.04235 26.3154C4.18258 26.3167 4.31739 26.3684 4.42106 26.4606C4.52473 26.5528 4.58999 26.679 4.60441 26.8151C4.63713 27.0631 4.48796 27.2707 4.20404 27.4173C3.96716 27.5284 3.74159 27.6611 3.53033 27.8137C3.33837 27.9556 3.1811 28.1373 3.06991 28.3457C2.95872 28.5542 2.89639 28.7841 2.88743 29.019C2.88336 29.1239 2.86358 29.2277 2.82872 29.3271C2.79169 29.4344 2.71972 29.5269 2.6238 29.5905C2.52787 29.6541 2.41326 29.6853 2.29745 29.6794Z" fill="url(#paint1_linear_272_212)"/>
<path d="M25.035 18.5614C23.8801 18.5614 22.7251 18.5614 21.5779 18.5614C21.4353 18.5553 21.2929 18.576 21.1583 18.6225C20.1516 19.0471 19.3297 19.6822 18.7859 20.6319C18.4972 21.1476 18.3348 21.7215 18.3114 22.3087C18.3114 22.3905 18.3114 22.4741 18.3018 22.5539C18.2867 22.6893 18.222 22.8147 18.1196 22.9071C18.0172 22.9995 17.8839 23.0525 17.7445 23.0565C17.5994 23.0591 17.4588 23.0074 17.3514 22.912C17.2441 22.8167 17.1781 22.6849 17.1671 22.5436C17.1449 22.3557 17.1517 22.1678 17.1276 21.9799C16.9727 20.7925 16.3355 19.8926 15.3664 19.1946C15.2605 19.1176 15.1489 19.049 15.0382 18.9785C14.5909 18.6838 14.0609 18.5319 13.5214 18.5436C11.5532 18.5737 9.58405 18.5549 7.61587 18.5549C7.50802 18.5594 7.39999 18.5569 7.29249 18.5474C7.15924 18.5239 7.03865 18.4555 6.9518 18.3541C6.86496 18.2527 6.81738 18.1248 6.81738 17.9926C6.81738 17.8605 6.86496 17.7325 6.9518 17.6311C7.03865 17.5297 7.15924 17.4613 7.29249 17.4379C7.39996 17.4279 7.50803 17.4254 7.61587 17.4304C9.76403 17.4304 11.9131 17.421 14.0642 17.436C14.304 17.4424 14.5425 17.3999 14.7646 17.3112C14.9866 17.2226 15.1873 17.0898 15.3538 16.9212C15.7013 16.5692 15.9932 16.1687 16.22 15.7329C16.5813 15.0719 16.8716 14.3761 17.0862 13.6568C17.1196 13.5328 17.1595 13.4105 17.2056 13.2904C17.248 13.1866 17.3215 13.0978 17.4166 13.0355C17.5116 12.9732 17.6237 12.9404 17.7382 12.9414C17.8527 12.9424 17.9642 12.9772 18.0581 13.0412C18.1519 13.1051 18.2238 13.1953 18.2643 13.2998C18.3124 13.4191 18.3441 13.5441 18.3817 13.6671C18.6358 14.4882 18.9485 15.2867 19.4153 16.0156C19.6403 16.3604 19.8981 16.6838 20.1853 16.9814C20.3338 17.1352 20.5145 17.256 20.7151 17.3358C20.9157 17.4155 21.1315 17.4523 21.3479 17.4435C23.7001 17.4342 26.0533 17.4435 28.4054 17.4435C28.5136 17.4393 28.6219 17.4412 28.7298 17.4492C28.8712 17.4615 29.0029 17.5246 29.0993 17.6264C29.1958 17.7281 29.25 17.8612 29.2516 17.9998C29.2531 18.1384 29.2019 18.2726 29.1078 18.3764C29.0137 18.4802 28.8834 18.5461 28.7423 18.5614C28.6463 18.5698 28.5499 18.572 28.4536 18.568L25.035 18.5614Z" fill="url(#paint2_linear_272_212)"/>
<path d="M27.6568 13.3893C27.649 13.4989 27.6108 13.6043 27.5461 13.6942C27.4815 13.7841 27.393 13.855 27.2901 13.8994C27.0938 13.985 26.9049 14.0858 26.7251 14.201C26.2439 14.5269 25.9552 14.9628 25.935 15.5471C25.9313 15.6289 25.9165 15.7098 25.8907 15.7876C25.8566 15.9135 25.7763 16.0227 25.665 16.0944C25.5537 16.1662 25.4192 16.1954 25.2873 16.1765C25.1616 16.1655 25.0436 16.113 24.9528 16.0275C24.8619 15.9421 24.8037 15.829 24.7878 15.7068C24.769 15.5093 24.7369 15.3131 24.6915 15.1197C24.5404 14.6359 24.1978 14.3005 23.7531 14.0601C23.6271 13.9924 23.4923 13.9426 23.3682 13.8722C23.2637 13.82 23.1781 13.7378 23.1232 13.6365C23.0682 13.5353 23.0465 13.42 23.061 13.3063C23.0755 13.1926 23.1255 13.0861 23.2042 13.0011C23.2829 12.9161 23.3866 12.8568 23.501 12.8313C23.5466 12.8178 23.5938 12.81 23.6415 12.8078C24.1285 12.7956 24.423 12.5185 24.5693 12.1042C24.669 11.793 24.7389 11.4735 24.7781 11.1498C24.8339 10.7834 25.0438 10.5561 25.3633 10.5626C25.6828 10.5692 25.8897 10.8059 25.9408 11.1695C25.9687 11.4594 26.0238 11.7462 26.1053 12.0262C26.2564 12.4781 26.5509 12.7834 27.087 12.8144C27.2404 12.8176 27.3864 12.8798 27.4931 12.9875C27.5998 13.0951 27.6586 13.2395 27.6568 13.3893Z" fill="url(#paint3_linear_272_212)"/>
<path d="M9.57612 6.8457C9.89565 6.86449 10.0737 6.96407 10.1796 7.1745C10.2286 7.26336 10.2493 7.36451 10.239 7.46494C10.2287 7.56537 10.1879 7.66051 10.1218 7.73814C10.0297 7.84635 9.9276 7.94605 9.81673 8.03594C8.75222 8.97084 7.87158 10.0876 7.21815 11.3314C7.17736 11.4159 7.1294 11.497 7.07475 11.5737C7.0002 11.6819 6.88768 11.7596 6.75842 11.7923C6.62917 11.825 6.49212 11.8104 6.37313 11.7513C6.25114 11.698 6.15283 11.6037 6.09611 11.4856C6.0394 11.3675 6.02807 11.2334 6.06419 11.1078C6.08735 11.0293 6.11965 10.9537 6.16044 10.8823C6.90784 9.43451 7.93652 8.14233 9.18922 7.07774C9.31003 6.98813 9.43963 6.91041 9.57612 6.8457Z" fill="url(#paint4_linear_272_212)"/>
<path d="M14.7647 15.7514C14.6434 15.7024 14.5294 15.6376 14.4259 15.5588C14.041 15.2056 13.6679 14.8424 13.3066 14.4691C13.0545 14.2098 13.0641 13.8773 13.3066 13.6556C13.36 13.6036 13.4237 13.5627 13.4937 13.5353C13.5637 13.5079 13.6386 13.4946 13.7141 13.4962C13.7895 13.4978 13.8638 13.5142 13.9325 13.5445C14.0012 13.5748 14.063 13.6183 14.1141 13.6725C14.5049 14.0342 14.884 14.409 15.2575 14.7876C15.3472 14.8679 15.4064 14.9754 15.4257 15.0927C15.4449 15.2101 15.4229 15.3303 15.3633 15.4339C15.2527 15.6424 15.0708 15.7317 14.7647 15.7514Z" fill="url(#paint5_linear_272_212)"/>
<path d="M22.3489 14.1357C22.3017 14.2554 22.2369 14.3678 22.1564 14.4692C21.7945 14.8449 21.4227 15.2094 21.041 15.5627C20.7724 15.8135 20.4394 15.8125 20.2065 15.5861C19.9736 15.3597 19.9717 15.0338 20.2277 14.7726C20.5925 14.3968 20.9668 14.0389 21.3451 13.681C21.4257 13.5924 21.5343 13.5325 21.6537 13.5109C21.7731 13.4893 21.8965 13.5072 22.0044 13.5617C22.2199 13.6575 22.3248 13.8313 22.3489 14.1357Z" fill="url(#paint6_linear_272_212)"/>
<path d="M15.4347 20.8726C15.391 20.9929 15.3286 21.106 15.2499 21.208C14.8803 21.5903 14.503 21.967 14.1084 22.3249C13.7774 22.6255 13.3231 22.5222 13.1653 22.1371C13.1212 22.0395 13.109 21.9311 13.1304 21.8265C13.1517 21.7219 13.2056 21.6263 13.2846 21.5527C13.6696 21.1663 14.059 20.7862 14.453 20.4123C14.5319 20.33 14.6361 20.2751 14.7498 20.2557C14.8636 20.2364 14.9807 20.2538 15.0834 20.3052C15.3009 20.402 15.4039 20.5729 15.4347 20.8726Z" fill="url(#paint7_linear_272_212)"/>
<path d="M21.6877 22.5064C21.5637 22.4552 21.4469 22.3885 21.3403 22.3082C20.9553 21.9544 20.5825 21.5908 20.2219 21.2175C19.9698 20.9592 19.9813 20.6257 20.2219 20.404C20.4625 20.1823 20.7753 20.1879 21.0304 20.4237C21.4211 20.7864 21.8003 21.1612 22.1737 21.5398C22.2628 21.6205 22.3215 21.7281 22.3404 21.8454C22.3592 21.9626 22.3371 22.0826 22.2777 22.1861C22.167 22.3956 21.9832 22.482 21.6877 22.5064Z" fill="url(#paint8_linear_272_212)"/>
<path d="M18.3034 10.9452C18.3102 11.0613 18.3102 11.1776 18.3034 11.2937C18.2919 11.4348 18.2259 11.5664 18.1186 11.6616C18.0113 11.7569 17.8709 11.8088 17.7259 11.8066C17.581 11.8066 17.4416 11.7521 17.3366 11.6546C17.2317 11.557 17.1691 11.4238 17.162 11.2825C17.1485 11.0848 17.1485 10.8864 17.162 10.6887C17.1802 10.3562 17.4103 10.1307 17.7231 10.1251C18.0359 10.1195 18.287 10.3506 18.3092 10.701C18.315 10.7817 18.3092 10.8635 18.3092 10.9452H18.3034Z" fill="url(#paint9_linear_272_212)"/>
<path d="M18.3026 25.0258C18.3099 25.1419 18.3099 25.2583 18.3026 25.3743C18.2863 25.5085 18.2212 25.6325 18.1191 25.7237C18.017 25.8149 17.8847 25.8673 17.7463 25.8713C17.6018 25.8756 17.4612 25.8253 17.3537 25.731C17.2461 25.6367 17.18 25.5056 17.1689 25.3649C17.1494 25.1461 17.1494 24.9261 17.1689 24.7073C17.178 24.5661 17.2427 24.4339 17.3494 24.3381C17.4561 24.2424 17.5966 24.1905 17.7415 24.1935C17.8863 24.1944 18.0254 24.2489 18.1306 24.3461C18.2359 24.4432 18.2994 24.5757 18.3084 24.7167C18.319 24.821 18.3084 24.9262 18.3084 25.0305L18.3026 25.0258Z" fill="url(#paint10_linear_272_212)"/>
<path d="M5.05079 13.9311C5.09704 13.7148 5.15454 13.501 5.22307 13.2904C5.27231 13.1627 5.36885 13.0577 5.4936 12.9961C5.61834 12.9346 5.76222 12.9209 5.89678 12.9579C6.03159 12.993 6.14857 13.0751 6.22569 13.1886C6.30281 13.3021 6.33473 13.4392 6.31544 13.5741C6.27962 13.7936 6.22621 14.0101 6.15568 14.2214C6.11815 14.3526 6.03219 14.4656 5.91437 14.5386C5.79655 14.6117 5.6552 14.6395 5.51758 14.6169C5.21922 14.5643 5.03058 14.3181 5.05079 13.9311Z" fill="url(#paint11_linear_272_212)"/>
</g>
<defs>
<linearGradient id="paint0_linear_272_212" x1="17.7325" y1="0.00585937" x2="17.7325" y2="36.0009" gradientUnits="userSpaceOnUse">
<stop stop-color="#4568DC"/>
<stop offset="1" stop-color="#B06AB3"/>
</linearGradient>
<linearGradient id="paint1_linear_272_212" x1="2.30589" y1="24.0625" x2="2.30589" y2="29.6801" gradientUnits="userSpaceOnUse">
<stop stop-color="#4568DC"/>
<stop offset="1" stop-color="#B06AB3"/>
</linearGradient>
<linearGradient id="paint2_linear_272_212" x1="18.0345" y1="12.9414" x2="18.0345" y2="23.0566" gradientUnits="userSpaceOnUse">
<stop stop-color="#4568DC"/>
<stop offset="1" stop-color="#B06AB3"/>
</linearGradient>
<linearGradient id="paint3_linear_272_212" x1="25.3567" y1="10.5625" x2="25.3567" y2="16.1821" gradientUnits="userSpaceOnUse">
<stop stop-color="#4568DC"/>
<stop offset="1" stop-color="#B06AB3"/>
</linearGradient>
<linearGradient id="paint4_linear_272_212" x1="8.14252" y1="6.8457" x2="8.14252" y2="11.8094" gradientUnits="userSpaceOnUse">
<stop stop-color="#4568DC"/>
<stop offset="1" stop-color="#B06AB3"/>
</linearGradient>
<linearGradient id="paint5_linear_272_212" x1="14.2768" y1="13.4961" x2="14.2768" y2="15.7514" gradientUnits="userSpaceOnUse">
<stop stop-color="#4568DC"/>
<stop offset="1" stop-color="#B06AB3"/>
</linearGradient>
<linearGradient id="paint6_linear_272_212" x1="21.1913" y1="13.502" x2="21.1913" y2="15.7535" gradientUnits="userSpaceOnUse">
<stop stop-color="#4568DC"/>
<stop offset="1" stop-color="#B06AB3"/>
</linearGradient>
<linearGradient id="paint7_linear_272_212" x1="14.2774" y1="20.248" x2="14.2774" y2="22.4996" gradientUnits="userSpaceOnUse">
<stop stop-color="#4568DC"/>
<stop offset="1" stop-color="#B06AB3"/>
</linearGradient>
<linearGradient id="paint8_linear_272_212" x1="21.192" y1="20.2422" x2="21.192" y2="22.5064" gradientUnits="userSpaceOnUse">
<stop stop-color="#4568DC"/>
<stop offset="1" stop-color="#B06AB3"/>
</linearGradient>
<linearGradient id="paint9_linear_272_212" x1="17.7318" y1="10.125" x2="17.7318" y2="11.8067" gradientUnits="userSpaceOnUse">
<stop stop-color="#4568DC"/>
<stop offset="1" stop-color="#B06AB3"/>
</linearGradient>
<linearGradient id="paint10_linear_272_212" x1="17.7337" y1="24.1934" x2="17.7337" y2="25.8715" gradientUnits="userSpaceOnUse">
<stop stop-color="#4568DC"/>
<stop offset="1" stop-color="#B06AB3"/>
</linearGradient>
<linearGradient id="paint11_linear_272_212" x1="5.68512" y1="12.9375" x2="5.68512" y2="14.6246" gradientUnits="userSpaceOnUse">
<stop stop-color="#4568DC"/>
<stop offset="1" stop-color="#B06AB3"/>
</linearGradient>
<clipPath id="clip0_272_212">
<rect width="33" height="36" fill="white"/>
</clipPath>
</defs>
</svg>
