<svg width="23" height="23" viewBox="0 0 23 23" fill="none" xmlns="http://www.w3.org/2000/svg">
<path d="M22.9993 11.4978C22.9988 8.96595 22.1629 6.50505 20.6211 4.49682C19.0793 2.4886 16.918 1.04531 14.4723 0.390853C12.0266 -0.263606 9.43324 -0.0926536 7.0946 0.877192C4.75596 1.84704 2.80273 3.56156 1.53791 5.7548C0.27309 7.94803 -0.23262 10.4974 0.0992298 13.0074C0.43108 15.5173 1.58194 17.8477 3.37328 19.6368C5.16462 21.426 7.4963 22.5739 10.0066 22.9026C12.5169 23.2314 15.0656 22.7224 17.2572 21.4548L21.7382 22.9498C21.9038 23.0051 22.0813 23.0141 22.2516 22.9759C22.4219 22.9377 22.5785 22.8537 22.7045 22.7329C22.8306 22.6122 22.9213 22.4594 22.9668 22.2909C23.0123 22.1224 23.011 21.9446 22.9629 21.7768L21.5983 17.0024C22.5202 15.3143 23.002 13.4212 22.9993 11.4978ZM11.4997 1.91445C13.1917 1.91434 14.8536 2.36224 16.3164 3.21262C17.7792 4.06299 18.9908 5.28553 19.828 6.75594C20.6652 8.22636 21.0982 9.89224 21.0829 11.5842C21.0677 13.2762 20.6047 14.934 19.7411 16.3891C19.6747 16.5015 19.6319 16.6263 19.6154 16.7558C19.5989 16.8854 19.6091 17.0169 19.6453 17.1424L20.6208 20.554L17.4431 19.496C17.3081 19.451 17.1648 19.4366 17.0236 19.4538C16.8824 19.471 16.7468 19.5195 16.6266 19.5957C15.3707 20.3905 13.9472 20.8823 12.4685 21.0322C10.9898 21.1821 9.49649 20.986 8.10663 20.4594C6.71678 19.9328 5.46845 19.0902 4.46033 17.998C3.45222 16.9059 2.71194 15.5942 2.29801 14.1667C1.88408 12.7392 1.80786 11.235 2.07535 9.77296C2.34285 8.31092 2.94674 6.93114 3.83929 5.74269C4.73185 4.55423 5.88859 3.58968 7.21809 2.92526C8.54759 2.26085 10.0134 1.9148 11.4997 1.91445Z" fill="#1F1F1F"/>
</svg>
