<svg width="21" height="24" viewBox="0 0 21 24" fill="none" xmlns="http://www.w3.org/2000/svg">
<path d="M2.1 8.17109C2.1 6.00398 2.985 3.92563 4.5603 2.39326C6.13561 0.86088 8.27218 0 10.5 0C12.7278 0 14.8644 0.86088 16.4397 2.39326C18.015 3.92563 18.9 6.00398 18.9 8.17109V12.9685L21 16.0327V20.4277H15.1084C14.8696 21.4427 14.2837 22.3488 13.4467 22.9977C12.6096 23.6466 11.5709 24 10.5005 24C9.43014 24 8.39145 23.6466 7.55438 22.9977C6.71731 22.3488 6.13143 21.4427 5.8926 20.4277H0V16.0327L2.1 12.9685V8.17109ZM8.0934 20.4277C8.2975 20.8835 8.63394 21.2714 9.06145 21.5439C9.48895 21.8163 9.98892 21.9615 10.5 21.9615C11.0111 21.9615 11.5111 21.8163 11.9386 21.5439C12.3661 21.2714 12.7025 20.8835 12.9066 20.4277H8.0934ZM10.5 2.04277C8.82914 2.04277 7.22671 2.68843 6.04523 3.83772C4.86375 4.987 4.2 6.54576 4.2 8.17109V13.5875L2.1 16.6517V18.385H18.9V16.6517L16.8 13.5875V8.17109C16.8 6.54576 16.1363 4.987 14.9548 3.83772C13.7733 2.68843 12.1709 2.04277 10.5 2.04277Z" fill="#1F1F1F"/>
</svg>
