<svg width="19" height="25" viewBox="0 0 19 25" fill="none" xmlns="http://www.w3.org/2000/svg">
<path d="M2.96759 24.2143L2.68008 23.8053L2.96759 24.2143L9.50003 19.623L16.0338 24.2143L16.0344 24.2148C16.2679 24.3784 16.5419 24.4751 16.8263 24.4952C17.1108 24.5152 17.3957 24.4579 17.65 24.329C17.9044 24.2001 18.1189 24.0042 18.2693 23.7619C18.4197 23.5195 18.4997 23.2403 18.5 22.955V22.9545V3.09091C18.5 2.40112 18.2214 1.74125 17.7283 1.25601C17.2354 0.771038 16.5686 0.5 15.875 0.5H3.125C2.43139 0.5 1.7646 0.771038 1.27172 1.25601C0.77856 1.74125 0.5 2.40112 0.5 3.09091V22.9545C0.499993 23.2401 0.579995 23.5197 0.730484 23.7624C0.880926 24.0051 1.09572 24.2012 1.35044 24.3302C1.6051 24.4592 1.89036 24.5163 2.17509 24.496C2.45984 24.4756 2.73405 24.3785 2.96759 24.2143ZM15.375 19.9607L10.4039 16.4636L10.4038 16.4635C10.1389 16.2774 9.82244 16.1779 9.49867 16.1779C9.1749 16.1779 8.85847 16.2774 8.59358 16.4635L8.59338 16.4637L3.625 19.9593V3.59091H15.375V19.9607Z" fill="#E9FE01" stroke="black"/>
</svg>
