<svg width="17" height="23" viewBox="0 0 17 23" fill="none" xmlns="http://www.w3.org/2000/svg">
<path d="M14.875 0H2.125C1.56141 0 1.02091 0.220291 0.622398 0.612412C0.223883 1.00453 3.31144e-10 1.53636 3.31142e-10 2.09091V21.9545C-4.8729e-06 22.1466 0.0537777 22.335 0.155444 22.499C0.257109 22.663 0.402728 22.7962 0.576315 22.8841C0.749901 22.972 0.944745 23.0112 1.13946 22.9973C1.33417 22.9833 1.52122 22.9169 1.68008 22.8053L8.5 18.0119L15.3212 22.8053C15.4801 22.9165 15.667 22.9827 15.8615 22.9964C16.056 23.0101 16.2506 22.9709 16.424 22.883C16.5974 22.7952 16.7428 22.6621 16.8444 22.4983C16.946 22.3345 16.9998 22.1464 17 21.9545V2.09091C17 1.53636 16.7761 1.00453 16.3776 0.612412C15.9791 0.220291 15.4386 0 14.875 0ZM14.875 19.9237L9.11625 15.8726C8.93605 15.7459 8.72013 15.6779 8.49867 15.6779C8.27722 15.6779 8.0613 15.7459 7.88109 15.8726L2.125 19.9224V2.09091H14.875V19.9237Z" fill="#1F1F1F"/>
</svg>
