<svg width="25" height="24" viewBox="0 0 25 24" fill="none" xmlns="http://www.w3.org/2000/svg">
<path d="M8.33381 9.99768C8.33381 9.73246 8.44355 9.47811 8.6389 9.29057C8.83424 9.10303 9.09918 8.99768 9.37544 8.99768H15.6253C15.9015 8.99768 16.1665 9.10303 16.3618 9.29057C16.5572 9.47811 16.6669 9.73246 16.6669 9.99768C16.6669 10.2629 16.5572 10.5172 16.3618 10.7048C16.1665 10.8923 15.9015 10.9977 15.6253 10.9977H9.37544C9.09918 10.9977 8.83424 10.8923 8.6389 10.7048C8.44355 10.5172 8.33381 10.2629 8.33381 9.99768ZM9.37544 12.9977C9.09918 12.9977 8.83424 13.103 8.6389 13.2906C8.44355 13.4781 8.33381 13.7325 8.33381 13.9977C8.33381 14.2629 8.44355 14.5172 8.6389 14.7048C8.83424 14.8923 9.09918 14.9977 9.37544 14.9977H13.542C13.8182 14.9977 14.0832 14.8923 14.2785 14.7048C14.4739 14.5172 14.5836 14.2629 14.5836 13.9977C14.5836 13.7325 14.4739 13.4781 14.2785 13.2906C14.0832 13.103 13.8182 12.9977 13.542 12.9977H9.37544ZM0.000719283 11.9977C0.00125084 9.35577 0.909912 6.78787 2.58574 4.69234C4.26158 2.5968 6.6109 1.09076 9.26928 0.407847C11.9277 -0.275067 14.7465 -0.096682 17.2885 0.91533C19.8305 1.92734 21.9536 3.71641 23.3284 6.005C24.7032 8.2936 25.2528 10.9538 24.8921 13.5729C24.5314 16.192 23.2805 18.6236 21.3334 20.4906C19.3863 22.3575 16.8518 23.5554 14.1232 23.8984C11.3946 24.2414 8.62436 23.7104 6.2422 22.3877L1.37151 23.9477C1.19156 24.0053 0.998625 24.0147 0.813517 23.9749C0.628409 23.935 0.458163 23.8473 0.321152 23.7213C0.184142 23.5954 0.0855698 23.4359 0.0360747 23.26C-0.0134204 23.0842 -0.0119589 22.8987 0.0403016 22.7237L1.52359 17.7417C0.521571 15.9802 -0.0021622 14.0047 0.000719283 11.9977ZM12.5004 1.99768C10.6612 1.99757 8.8548 2.46495 7.26479 3.35229C5.67477 4.23964 4.35782 5.51533 3.44781 7.04968C2.5378 8.58403 2.06717 10.3223 2.08376 12.0879C2.10035 13.8535 2.60358 15.5833 3.54228 17.1017C3.6145 17.219 3.661 17.3492 3.67891 17.4843C3.69682 17.6195 3.68577 17.7568 3.64645 17.8877L2.58606 21.4477L6.04012 20.3437C6.18682 20.2967 6.34257 20.2816 6.49608 20.2996C6.64958 20.3176 6.79699 20.3682 6.9276 20.4477C8.2927 21.2771 9.84004 21.7902 11.4473 21.9467C13.0546 22.1031 14.6777 21.8985 16.1884 21.349C17.6992 20.7995 19.056 19.9202 20.1518 18.7806C21.2476 17.6409 22.0522 16.2722 22.5022 14.7827C22.9521 13.2931 23.0349 11.7235 22.7442 10.1979C22.4534 8.67227 21.797 7.2325 20.8269 5.99237C19.8567 4.75224 18.5994 3.74575 17.1542 3.05245C15.7091 2.35915 14.1159 1.99805 12.5004 1.99768Z" fill="#1F1F1F"/>
</svg>
